<svg xmlns="http://www.w3.org/2000/svg" xmlns:xlink="http://www.w3.org/1999/xlink" width="28" height="32" x="0" y="0" enable-background="new 0 0 28 32" version="1.1" viewBox="0 0 28 32" xml:space="preserve"><g id="spin"><g><path fill="#4E4E50" d="M23.883,6.086l-2.82,2.832C22.953,10.809,24,13.324,24,16c0,5.516-4.484,10-10,10v-2l-4,4l4,4v-2 c7.719,0,14-6.281,14-14C28,12.254,26.539,8.734,23.883,6.086z"/><path fill="#4E4E50" d="M18,4l-4-4v2C6.281,2,0,8.281,0,16c0,3.746,1.461,7.266,4.117,9.914l2.82-2.832 C5.047,21.191,4,18.676,4,16C4,10.484,8.484,6,14,6v2L18,4z"/></g></g></svg>